<svg height="1000" width="729" xmlns="http://www.w3.org/2000/svg"><path d="M572.5 865H156.25q-65 0-110.625-45.625T0 708.75v-417.5q0-65 45.625-110.625T156.25 135h260q21.25 0 36.875 15.625T468.75 187.5t-15.625 36.875T416.25 240h-260q-21.25 0-36.875 15t-15.625 36.25v417.5q0 21.25 15.625 36.25t36.875 15H572.5q21.25 0 36.875-15T625 708.75V552.5q0-21.25 15.625-36.875T677.5 500t36.25 15.625 15 36.875v156.25q0 65-45.625 110.625T572.5 865zM425 647.5q-28.75 0-48.75-20L237.5 488.75q-20-21.25-20-50t20-48.75 48.75-20T335 390l75 73.75L590 180q13.75-25 41.875-33.125T685 152.5t32.5 41.875-6.25 53.125l-225 363.75Q467.5 647.5 425 647.5z"/></svg>